<?xml version="1.0" encoding="UTF-8"?>
<svg width="24px" height="24px" viewBox="0 0 24 24" version="1.1" xmlns="http://www.w3.org/2000/svg" xmlns:xlink="http://www.w3.org/1999/xlink">
    <!-- Generator: Sketch 56.2 (81672) - https://sketch.com -->
    <title>Einstein@2x</title>
    <desc>Created with Sketch.</desc>
    <g id="Einstein" stroke="none" stroke-width="1" fill="none" fill-rule="evenodd">
        <path d="M17.5135135,18 L6.48648649,18 C6.21621622,18 6,17.7837838 6,17.5135135 L6,6.48648649 C6,6.21621622 6.21621622,6 6.48648649,6 L17.5135135,6 C17.7837838,6 18,6.21621622 18,6.48648649 L18,17.5135135 C18,17.7837838 17.7837838,18 17.5135135,18 Z M7.02702703,16.972973 L16.972973,16.972973 L16.972973,7.02702703 L7.02702703,7.02702703 L7.02702703,16.972973 Z M15.2432432,10.4864865 L8.75675676,10.4864865 C8.59459459,10.4864865 8.48648649,10.3783784 8.48648649,10.2702703 L8.48648649,8.75675676 C8.48648649,8.59459459 8.59459459,8.48648649 8.75675676,8.48648649 L15.2432432,8.48648649 C15.4054054,8.48648649 15.5135135,8.59459459 15.5135135,8.75675676 L15.5135135,10.2702703 C15.5135135,10.3783784 15.4054054,10.4864865 15.2432432,10.4864865 L15.2432432,10.4864865 Z M10.2702703,15.5135135 L8.75675676,15.5135135 C8.59459459,15.5135135 8.48648649,15.4054054 8.48648649,15.2432432 L8.48648649,12.2702703 C8.48648649,12.1081081 8.59459459,12 8.75675676,12 L10.2702703,12 C10.3783784,12 10.4864865,12.1081081 10.4864865,12.2702703 L10.4864865,15.2432432 C10.4864865,15.4054054 10.3783784,15.5135135 10.2702703,15.5135135 Z M15.2432432,15.5135135 L12.2702703,15.5135135 C12.1081081,15.5135135 12,15.4054054 12,15.2432432 L12,12.2702703 C12,12.1081081 12.1081081,12 12.2702703,12 L15.2432432,12 C15.4054054,12 15.5135135,12.1081081 15.5135135,12.2702703 L15.5135135,15.2432432 C15.5135135,15.4054054 15.4054054,15.5135135 15.2432432,15.5135135 Z" id="Shape" fill="#FFFFFF" fill-rule="nonzero"></path>
        <g id="orange" transform="translate(2.000000, 2.000000)" fill="#F5A623">
            <rect x="0" y="0" width="20" height="20" rx="2"></rect>
        </g>
        <g id="blue" transform="translate(2.000000, 2.000000)" fill="#4A90E2">
            <g id="green">
                <rect x="0" y="0" width="20" height="20" rx="2"></rect>
            </g>
        </g>
        <rect id="green" fill="#54698D" x="2" y="2" width="20" height="20" rx="2"></rect>
        <g id="einstein.dcc9e324" transform="translate(6.000000, 6.000000)" fill="#FFFFFF">
            <path d="M12.3551587,6.30952381 L12.3551587,6.30952381 C12.0972222,5.73809524 11.8134921,5.30952381 11.5039683,4.97619048 C11.2202381,4.66666667 10.3948413,4.21428571 9.93055556,4.04761905 C10.0595238,3.88095238 10.3174603,3.76190476 10.7043651,3.69047619 C10.6785714,3.45238095 10.4206349,3.19047619 9.93055556,2.9047619 C9.44047619,2.61904762 8.76984127,2.54761905 7.91865079,2.71428571 C7.91865079,2.42857143 7.71230159,1.92857143 7.27380952,1.19047619 C6.6547619,0.0714285714 4.10119048,-0.285714286 4.12698413,0.238095238 C4.35912698,0.880952381 4.46230159,1.71428571 4.48809524,2.69047619 C4.17857143,2.35714286 3.84325397,2.14285714 3.48214286,2.04761905 C3.1984127,1.97619048 2.94047619,1.95238095 2.68253968,2 C2.65674603,2 2.63095238,2.02380952 2.60515873,2.02380952 C2.52777778,2.07142857 2.52777778,2.19047619 2.57936508,2.26190476 L2.57936508,2.26190476 C2.73412698,2.45238095 2.81150794,2.5952381 2.86309524,2.69047619 C2.91468254,2.83333333 3.01785714,3.02380952 3.1468254,3.30952381 C2.75992063,3.26190476 2.26984127,3.38095238 1.59920635,3.66666667 C0.98015873,3.95238095 0.464285714,4.5952381 0.0257936508,5.61904762 C0.0257936508,5.64285714 0.0257936508,5.64285714 0.0257936508,5.66666667 C0.0257936508,5.76190476 0.0773809524,5.83333333 0.154761905,5.85714286 L0.154761905,5.85714286 C0.748015873,5.95238095 1.16071429,6.04761905 1.39285714,6.16666667 C1.65079365,6.28571429 1.93452381,6.54761905 2.26984127,6.9047619 C2.14087302,6.88095238 1.93452381,7 1.625,7.26190476 C1.34126984,7.47619048 1.13492063,7.80952381 1.00595238,8.28571429 C1.00595238,8.30952381 1.00595238,8.30952381 1.00595238,8.33333333 C1.00595238,8.42857143 1.05753968,8.5 1.16071429,8.5 L1.16071429,8.5 C1.59920635,8.52380952 2.03769841,8.5952381 2.45039683,8.71428571 C2.91468254,8.85714286 3.27579365,9 3.53373016,9.16666667 C3.53373016,9.16666667 3.53373016,9.16666667 3.53373016,9.16666667 C3.53373016,9.11904762 3.53373016,9.07142857 3.53373016,9.04761905 C3.53373016,8.5952381 3.53373016,8.04761905 3.53373016,7.78571429 C3.53373016,7.45238095 3.50793651,7.19047619 3.86904762,6.78571429 C4.23015873,6.38095238 4.59126984,6.28571429 5.44246032,6.5952381 C6.29365079,6.9047619 7.24801587,6.26190476 7.99603175,6.42857143 C8.76984127,6.5952381 9.15674603,7.30952381 9.23412698,7.80952381 C9.31150794,8.30952381 9.23412698,8.57142857 9.23412698,9.19047619 C9.23412698,9.21428571 9.23412698,9.26190476 9.23412698,9.28571429 C9.23412698,9.28571429 9.23412698,9.28571429 9.25992063,9.28571429 C9.6468254,9.07142857 9.8531746,8.95238095 10.1626984,8.83333333 C10.3690476,8.73809524 10.7043651,8.64285714 11.1428571,8.5 C11.1170635,8.26190476 10.9107143,8.04761905 10.4980159,7.80952381 C10.6269841,7.76190476 11.2202381,7.4047619 11.5555556,7.16666667 C11.7619048,7.02380952 12.0198413,6.80952381 12.3551587,6.5 C12.3809524,6.47619048 12.406746,6.38095238 12.3551587,6.30952381 Z" id="Path"></path>
            <ellipse id="Oval" cx="7.04166667" cy="8.66666667" rx="1" ry="1"></ellipse>
            <ellipse id="Oval" cx="4.8234127" cy="8.66666667" rx="1" ry="1"></ellipse>
            <path d="M5.39087302,9.64285714 C5.15873016,9.52380952 4.79761905,9.57142857 4.59126984,9.66666667 C4.38492063,9.76190476 4.12698413,10.047619 4.12698413,10.3095238 C4.12698413,10.5714286 4.20436508,10.7380952 4.25595238,10.8333333 C4.28174603,10.9047619 4.35912698,10.9761905 4.46230159,11.0952381 L4.46230159,11.0952381 C4.48809524,11.1428571 4.53968254,11.1428571 4.59126984,11.1428571 L4.95238095,11.0714286 L5.72619048,11.4047619 C5.75198413,11.4285714 5.80357143,11.4285714 5.82936508,11.4047619 L6.68055556,11.0714286 L7.11904762,11.1428571 C7.14484127,11.1428571 7.19642857,11.1428571 7.22222222,11.1190476 C7.42857143,11 7.55753968,10.8333333 7.63492063,10.6666667 C7.73809524,10.3809524 7.63492063,9.92857143 7.37698413,9.73809524 C7.14484127,9.52380952 6.78373016,9.45238095 6.42261905,9.5952381 C6.13888889,9.69047619 5.93253968,9.73809524 5.77777778,9.73809524 C5.67460317,9.73809524 5.57142857,9.69047619 5.39087302,9.64285714 Z" id="Path"></path>
        </g>
    </g>
</svg>