<?xml version="1.0" encoding="UTF-8"?>
<svg width="24px" height="24px" viewBox="0 0 24 24" version="1.1" xmlns="http://www.w3.org/2000/svg" xmlns:xlink="http://www.w3.org/1999/xlink">
    <!-- Generator: Sketch 56.2 (81672) - https://sketch.com -->
    <title>Product @2x</title>
    <desc>Created with Sketch.</desc>
    <g id="Product-" stroke="none" stroke-width="1" fill="none" fill-rule="evenodd">
        <path d="M17.5135135,18 L6.48648649,18 C6.21621622,18 6,17.7837838 6,17.5135135 L6,6.48648649 C6,6.21621622 6.21621622,6 6.48648649,6 L17.5135135,6 C17.7837838,6 18,6.21621622 18,6.48648649 L18,17.5135135 C18,17.7837838 17.7837838,18 17.5135135,18 Z M7.02702703,16.972973 L16.972973,16.972973 L16.972973,7.02702703 L7.02702703,7.02702703 L7.02702703,16.972973 Z M15.2432432,10.4864865 L8.75675676,10.4864865 C8.59459459,10.4864865 8.48648649,10.3783784 8.48648649,10.2702703 L8.48648649,8.75675676 C8.48648649,8.59459459 8.59459459,8.48648649 8.75675676,8.48648649 L15.2432432,8.48648649 C15.4054054,8.48648649 15.5135135,8.59459459 15.5135135,8.75675676 L15.5135135,10.2702703 C15.5135135,10.3783784 15.4054054,10.4864865 15.2432432,10.4864865 L15.2432432,10.4864865 Z M10.2702703,15.5135135 L8.75675676,15.5135135 C8.59459459,15.5135135 8.48648649,15.4054054 8.48648649,15.2432432 L8.48648649,12.2702703 C8.48648649,12.1081081 8.59459459,12 8.75675676,12 L10.2702703,12 C10.3783784,12 10.4864865,12.1081081 10.4864865,12.2702703 L10.4864865,15.2432432 C10.4864865,15.4054054 10.3783784,15.5135135 10.2702703,15.5135135 Z M15.2432432,15.5135135 L12.2702703,15.5135135 C12.1081081,15.5135135 12,15.4054054 12,15.2432432 L12,12.2702703 C12,12.1081081 12.1081081,12 12.2702703,12 L15.2432432,12 C15.4054054,12 15.5135135,12.1081081 15.5135135,12.2702703 L15.5135135,15.2432432 C15.5135135,15.4054054 15.4054054,15.5135135 15.2432432,15.5135135 Z" id="Shape" fill="#FFFFFF" fill-rule="nonzero"></path>
        <g id="Group-8-Copy" transform="translate(2.000000, 2.000000)">
            <g id="orange" fill="#F5A623">
                <rect x="0" y="0" width="20" height="20" rx="2"></rect>
            </g>
            <g id="blue" fill="#4A90E2">
                <g id="green">
                    <rect x="0" y="0" width="20" height="20" rx="2"></rect>
                </g>
            </g>
            <rect id="green" fill="#AF85CE" x="0" y="0" width="20" height="20" rx="2"></rect>
        </g>
        <g id="product.85e82972" transform="translate(7.000000, 7.000000)" fill="#FFFFFF" fill-rule="nonzero">
            <path d="M0.333333333,7.66666667 L1.16666667,7.66666667 C1.35,7.66666667 1.5,7.51666667 1.5,7.33333333 L1.5,2.16666667 C1.5,1.98333333 1.35,1.83333333 1.16666667,1.83333333 L0.333333333,1.83333333 C0.15,1.83333333 0,1.98333333 0,2.16666667 L0,7.33333333 C0,7.51666667 0.15,7.66666667 0.333333333,7.66666667 Z M9.66666667,1.83333333 L8.83333333,1.83333333 C8.65,1.83333333 8.5,1.98333333 8.5,2.16666667 L8.5,7.33333333 C8.5,7.51666667 8.65,7.66666667 8.83333333,7.66666667 L9.66666667,7.66666667 C9.85,7.66666667 10,7.51666667 10,7.33333333 L10,2.16666667 C10,1.98333333 9.85,1.83333333 9.66666667,1.83333333 Z M5.5,7.66666667 C5.68333333,7.66666667 5.83333333,7.51666667 5.83333333,7.33333333 L5.83333333,2.16666667 C5.83333333,1.98333333 5.68333333,1.83333333 5.5,1.83333333 L4.5,1.83333333 C4.31666667,1.83333333 4.16666667,1.98333333 4.16666667,2.16666667 L4.16666667,7.33333333 C4.16666667,7.51666667 4.31666667,7.66666667 4.5,7.66666667 L5.5,7.66666667 Z M7.5,7.66666667 C7.68333333,7.66666667 7.83333333,7.51666667 7.83333333,7.33333333 L7.83333333,2.16666667 C7.83333333,1.98333333 7.68333333,1.83333333 7.5,1.83333333 L7.16666667,1.83333333 C6.98333333,1.83333333 6.83333333,1.98333333 6.83333333,2.16666667 L6.83333333,7.33333333 C6.83333333,7.51666667 6.98333333,7.66666667 7.16666667,7.66666667 L7.5,7.66666667 Z M3.16666667,7.66666667 C3.35,7.66666667 3.5,7.51666667 3.5,7.33333333 L3.5,2.16666667 C3.5,1.98333333 3.35,1.83333333 3.16666667,1.83333333 L2.83333333,1.83333333 C2.65,1.83333333 2.5,1.98333333 2.5,2.16666667 L2.5,7.33333333 C2.5,7.51666667 2.65,7.66666667 2.83333333,7.66666667 L3.16666667,7.66666667 Z M9.66666667,8.66666667 L0.333333333,8.66666667 C0.15,8.66666667 0,8.81666667 0,9 L0,9.33333333 C0,9.51666667 0.15,9.66666667 0.333333333,9.66666667 L9.66666667,9.66666667 C9.85,9.66666667 10,9.51666667 10,9.33333333 L10,9 C10,8.81666667 9.85,8.66666667 9.66666667,8.66666667 Z M9.66666667,0 L0.333333333,0 C0.15,0 0,0.15 0,0.333333333 L0,0.666666667 C0,0.85 0.15,1 0.333333333,1 L9.66666667,1 C9.85,1 10,0.85 10,0.666666667 L10,0.333333333 C10,0.15 9.85,0 9.66666667,0 Z" id="Shape"></path>
        </g>
    </g>
</svg>