<?xml version="1.0"?>
<svg xmlns="http://www.w3.org/2000/svg" id="Outline" viewBox="0 0 512 512" width="512" height="512"><path d="M472,24H40A24.028,24.028,0,0,0,16,48V464a24.028,24.028,0,0,0,24,24H472a24.028,24.028,0,0,0,24-24V48A24.028,24.028,0,0,0,472,24ZM40,40H472a8.009,8.009,0,0,1,8,8V88H32V48A8.009,8.009,0,0,1,40,40ZM472,472H40a8.009,8.009,0,0,1-8-8V104H480V464A8.009,8.009,0,0,1,472,472Z"/><circle cx="120" cy="64" r="8"/><circle cx="88" cy="64" r="8"/><circle cx="56" cy="64" r="8"/><path d="M440,136H72a8,8,0,0,0-8,8V272a8,8,0,0,0,8,8H440a8,8,0,0,0,8-8V144A8,8,0,0,0,440,136ZM308.849,254.465,328,235.313,356.686,264H316ZM296,264H232l32-42.667Zm-84,0H151.365L192,205.95l30.673,43.819Zm220,0H379.314l-45.657-45.657a8,8,0,0,0-11.314,0l-23.192,23.192L270.4,203.2a8,8,0,0,0-12.8,0l-24.825,33.1-34.221-48.888a8,8,0,0,0-13.108,0L131.835,264H80V152H432Z"/><circle cx="304" cy="192" r="8"/><path d="M272,392H240a24,24,0,0,0,0,48h32a24,24,0,0,0,0-48Zm0,32H240a8,8,0,0,1,0-16h32a8,8,0,0,1,0,16Z"/><path d="M304,328a8,8,0,0,0,0-16H208a8,8,0,0,0,0,16Z"/><path d="M344,344H168a8,8,0,0,0,0,16H344a8,8,0,0,0,0-16Z"/><path d="M136,344H120a8,8,0,0,0,0,16h16a8,8,0,0,0,0-16Z"/><path d="M392,344H376a8,8,0,0,0,0,16h16a8,8,0,0,0,0-16Z"/></svg>
