<svg id="regular" enable-background="new 0 0 24 24" height="512" viewBox="0 0 24 24" width="512" xmlns="http://www.w3.org/2000/svg"><path d="m19.25 18h-14.5c-.965 0-1.75-.785-1.75-1.75v-9.5c0-.965.785-1.75 1.75-1.75h14.5c.965 0 1.75.785 1.75 1.75v9.5c0 .965-.785 1.75-1.75 1.75zm-14.5-11.5c-.138 0-.25.112-.25.25v9.5c0 .138.112.25.25.25h14.5c.138 0 .25-.112.25-.25v-9.5c0-.138-.112-.25-.25-.25z"/><path d="m19.75 17.86c-.151 0-.303-.045-.436-.14l-15.61-11.15c-.337-.241-.415-.709-.174-1.046s.709-.416 1.046-.174l15.61 11.15c.337.241.415.709.174 1.046-.146.205-.377.314-.61.314z"/><path d="m4.25 17.86c-.232 0-.461-.107-.608-.311-.243-.336-.167-.805.168-1.047l15.5-11.221c.335-.242.804-.168 1.047.167.243.336.168.805-.167 1.048l-15.5 11.221c-.133.097-.287.143-.44.143z"/><path d="m22.25 24h-20.5c-.965 0-1.75-.785-1.75-1.75v-20.5c0-.965.785-1.75 1.75-1.75h20.5c.965 0 1.75.785 1.75 1.75v20.5c0 .965-.785 1.75-1.75 1.75zm-20.5-22.5c-.138 0-.25.112-.25.25v20.5c0 .138.112.25.25.25h20.5c.138 0 .25-.112.25-.25v-20.5c0-.138-.112-.25-.25-.25z"/></svg>