<svg id="Flat" height="512" viewBox="0 0 512 512" width="512" xmlns="http://www.w3.org/2000/svg"><path d="m477.037 295.106c-3.381 8.164-22.292 9.669-27.056 16.715s1.129 24.8-4.793 30.636-23.66-.251-30.516 4.279-8 23.169-15.567 26.3-21.554-9.236-29.606-7.592-16.29 18.494-24.599 18.556-16.7-16.661-25.052-18.274-22.787 10.694-30.951 7.313-9.669-22.293-16.714-27.057-24.8 1.13-30.637-4.793.252-23.66-4.279-30.516-23.168-8-26.3-15.567 9.236-21.554 7.591-29.606-18.497-16.29-18.558-24.6 16.66-16.7 18.274-25.053-10.695-22.787-7.313-30.95 22.293-9.669 27.057-16.715-1.13-24.8 4.792-30.636 23.66.251 30.517-4.279 8-23.169 15.566-26.3 21.554 9.236 29.606 7.592 16.29-18.497 24.601-18.559 16.7 16.661 25.052 18.274 22.787-10.694 30.951-7.313 9.669 22.293 16.715 27.057 24.8-1.13 30.636 4.793-.252 23.66 4.279 30.516 23.168 8 26.3 15.567-9.235 21.554-7.591 29.606 18.495 16.29 18.558 24.6-16.661 16.7-18.274 25.053 10.693 22.79 7.311 30.953z" fill="#ff750a"/><circle cx="343.999" cy="240" fill="#ffd33a" r="88"/><path d="m448 328a80 80 0 0 1 -80 80c-18.42 0-34.48-5.54-48-16-20.26 20.19-49.13 32-80 32s-59.74-11.81-80-32c-13.52 10.46-29.58 16-48 16a80 80 0 0 1 0-160c11.31 0 22.25 3.76 32 8 19.55-32.7 55.13-56 96-56s76.45 23.3 96 56c9.75-4.24 20.69-8 32-8a80 80 0 0 1 80 80z" fill="#a3d4f7"/><path d="m104 240a40 40 0 1 1 -56-36.66v-99.34a16 16 0 1 1 32 0v99.34a39.989 39.989 0 0 1 24 36.66z" fill="#dadcde"/><path d="m104 240a40 40 0 1 1 -56-36.66v-59.34h32v59.34a39.989 39.989 0 0 1 24 36.66z" fill="#2d85cc"/></svg>