<?xml version="1.0" encoding="UTF-8"?>
<svg xmlns="http://www.w3.org/2000/svg" xmlns:xlink="http://www.w3.org/1999/xlink" viewBox="0 0 24 24" version="1.1" width="96px" height="96px">
<g id="surface1">
<path style=" " d="M 12 0 C 5.398438 0 0 5.398438 0 12 C 0 18.601563 5.398438 24 12 24 C 18.601563 24 24 18.601563 24 12 C 24 5.398438 18.601563 0 12 0 Z M 12 2 C 17.5 2 22 6.5 22 12 C 22 17.5 17.5 22 12 22 C 6.5 22 2 17.5 2 12 C 2 6.5 6.5 2 12 2 Z M 18 6 L 10.09375 10.09375 L 6 18 L 13.90625 13.90625 Z M 12 10.90625 C 12.601563 10.90625 13.09375 11.398438 13.09375 12 C 13.09375 12.601563 12.601563 13.09375 12 13.09375 C 11.398438 13.09375 10.90625 12.601563 10.90625 12 C 10.90625 11.398438 11.398438 10.90625 12 10.90625 Z "/>
</g>
</svg>
